<svg class="svg-icon" style="width: 1em;height: 1em;vertical-align: middle;fill: currentColor;overflow: hidden;" viewBox="0 0 1024 1024" version="1.1" xmlns="http://www.w3.org/2000/svg"><path d="M233.7792 626.8416a240.64 240.64 0 0 1 88.8832-74.0352V169.6256c0-60.3136 56.6784-109.4144 126.464-109.4144 69.888 0 126.5664 49.0496 126.5664 109.4144v383.1808a241.8176 241.8176 0 0 1 88.7808 74.0352c25.1904 34.816 38.5536 75.1104 38.5536 116.4288 0 58.624-26.4192 113.7664-74.3424 155.2384-47.9232 41.5232-111.7184 64.4096-179.5584 64.4096-67.7376 0-131.6352-22.8352-179.5072-64.4096-47.9232-41.4208-74.3936-96.5632-74.3936-155.2384a198.5024 198.5024 0 0 1 38.5536-116.4288zM449.2288 926.72c116.992 0 212.0192-82.2784 212.0192-183.5008 0-69.376-44.4928-132.096-116.0704-163.584l-11.3152-5.0176v-404.992c0-40.4992-37.888-73.2672-84.6336-73.2672S364.544 129.1776 364.544 169.6256v405.0432l-11.4176 5.0176c-71.5264 31.488-116.0704 94.208-116.0704 163.6352 0.1024 100.9664 95.1808 183.3984 212.1728 183.3984z m0 0" fill="#00A0E9" /><path d="M411.8528 647.7824V291.4816c0-17.8176 16.6912-32.3584 37.376-32.3584 20.5824 0 37.376 14.4384 37.376 32.3584v356.2496c43.6224 13.3632 74.7008 49.3056 74.7008 91.4432 0 53.504-50.1248 96.9728-112.0768 96.9728-61.8496 0-112.0768-43.3664-112.0768-96.9728-0.0512-42.2912 31.2832-78.1312 74.7008-91.392zM240.64 178.1248c0-20.3776-43.008-81.8176-43.008-81.8176s-43.008 61.5424-43.008 81.8176c0 20.3264 19.1488 36.7616 43.008 36.7616 23.8592 0.0512 43.008-16.4352 43.008-36.7616zM154.7264 502.9888c0-30.3104-64.2048-122.0608-64.2048-122.0608S26.4704 472.576 26.4704 502.9888c0 30.4128 28.7232 54.9376 64.2048 54.9376 35.328 0 64.0512-24.576 64.0512-54.9376z m718.6944 84.6336c68.6592 0 124.1088-47.616 124.1088-106.3424 0-58.7776-124.1088-236.2368-124.1088-236.2368S749.312 422.656 749.312 481.28c0 58.7264 55.552 106.3424 124.1088 106.3424z m0 0" fill="#00A0E9" /></svg>