<svg xmlns="http://www.w3.org/2000/svg" xmlns:xlink="http://www.w3.org/1999/xlink" version="1.1" width="256" height="256" viewBox="0 0 256 256" xml:space="preserve">

<defs>
</defs>
<g style="stroke: none; stroke-width: 0; stroke-dasharray: none; stroke-linecap: butt; stroke-linejoin: miter; stroke-miterlimit: 10; fill: none; fill-rule: nonzero; opacity: 1;" transform="translate(1.4065934065934016 1.4065934065934016) scale(2.81 2.81)" >
	<path d="M 45 90.008 c -17.488 0 -31.715 -14.227 -31.715 -31.716 c 0 -22.264 17.854 -42.847 29.669 -56.467 l 1.29 -1.488 c 0.38 -0.44 1.133 -0.44 1.513 0 l 1.289 1.487 c 11.815 13.62 29.67 34.203 29.67 56.468 C 76.716 75.781 62.488 90.008 45 90.008 z" style="stroke: none; stroke-width: 1; stroke-dasharray: none; stroke-linecap: butt; stroke-linejoin: miter; stroke-miterlimit: 10; fill: rgb(64,180,197); fill-rule: nonzero; opacity: 1;" transform=" matrix(1 0 0 1 0 0) " stroke-linecap="round" />
	<path d="M 53.942 87.356 c -19.11 0 -34.657 -15.547 -34.657 -34.657 c 0 -16.585 9.068 -32.315 18.93 -45.364 c -11.318 13.361 -24.93 31.518 -24.93 50.958 c 0 17.488 14.227 31.716 31.715 31.716 c 4.751 0 9.257 -1.057 13.306 -2.937 C 56.875 87.252 55.421 87.356 53.942 87.356 z" style="stroke: none; stroke-width: 1; stroke-dasharray: none; stroke-linecap: butt; stroke-linejoin: miter; stroke-miterlimit: 10; fill: rgb(51,151,166); fill-rule: nonzero; opacity: 1;" transform=" matrix(1 0 0 1 0 0) " stroke-linecap="round" />
</g>
</svg>