<svg xmlns="http://www.w3.org/2000/svg" xmlns:xlink="http://www.w3.org/1999/xlink" version="1.1" width="256" height="256" viewBox="0 0 256 256" xml:space="preserve">

<defs>
</defs>
<g style="stroke: none; stroke-width: 0; stroke-dasharray: none; stroke-linecap: butt; stroke-linejoin: miter; stroke-miterlimit: 10; fill: none; fill-rule: nonzero; opacity: 1;" transform="translate(1.4065934065934016 1.4065934065934016) scale(2.81 2.81)" >
	<path d="M 45 13.229 c -0.552 0 -1 -0.448 -1 -1 V 3.177 c 0 -0.552 0.448 -1 1 -1 s 1 0.448 1 1 v 9.053 C 46 12.782 45.552 13.229 45 13.229 z" style="stroke: none; stroke-width: 1; stroke-dasharray: none; stroke-linecap: butt; stroke-linejoin: miter; stroke-miterlimit: 10; fill: rgb(255,190,0); fill-rule: nonzero; opacity: 1;" transform=" matrix(1 0 0 1 0 0) " stroke-linecap="round" />
	<path d="M 10.053 48.177 H 1 c -0.552 0 -1 -0.447 -1 -1 s 0.448 -1 1 -1 h 9.053 c 0.552 0 1 0.447 1 1 S 10.605 48.177 10.053 48.177 z" style="stroke: none; stroke-width: 1; stroke-dasharray: none; stroke-linecap: butt; stroke-linejoin: miter; stroke-miterlimit: 10; fill: rgb(255,190,0); fill-rule: nonzero; opacity: 1;" transform=" matrix(1 0 0 1 0 0) " stroke-linecap="round" />
	<path d="M 89 48.177 h -9.053 c -0.553 0 -1 -0.447 -1 -1 s 0.447 -1 1 -1 H 89 c 0.553 0 1 0.447 1 1 S 89.553 48.177 89 48.177 z" style="stroke: none; stroke-width: 1; stroke-dasharray: none; stroke-linecap: butt; stroke-linejoin: miter; stroke-miterlimit: 10; fill: rgb(255,190,0); fill-rule: nonzero; opacity: 1;" transform=" matrix(1 0 0 1 0 0) " stroke-linecap="round" />
	<path d="M 69.711 23.465 c -0.256 0 -0.512 -0.098 -0.707 -0.293 c -0.391 -0.391 -0.391 -1.023 0 -1.414 l 6.401 -6.401 c 0.391 -0.391 1.023 -0.391 1.414 0 s 0.391 1.023 0 1.414 l -6.401 6.401 C 70.223 23.368 69.967 23.465 69.711 23.465 z" style="stroke: none; stroke-width: 1; stroke-dasharray: none; stroke-linecap: butt; stroke-linejoin: miter; stroke-miterlimit: 10; fill: rgb(255,190,0); fill-rule: nonzero; opacity: 1;" transform=" matrix(1 0 0 1 0 0) " stroke-linecap="round" />
	<path d="M 20.289 23.465 c -0.256 0 -0.512 -0.098 -0.707 -0.293 l -6.401 -6.401 c -0.391 -0.391 -0.391 -1.023 0 -1.414 s 1.023 -0.391 1.414 0 l 6.401 6.401 c 0.391 0.391 0.391 1.023 0 1.414 C 20.8 23.368 20.544 23.465 20.289 23.465 z" style="stroke: none; stroke-width: 1; stroke-dasharray: none; stroke-linecap: butt; stroke-linejoin: miter; stroke-miterlimit: 10; fill: rgb(255,190,0); fill-rule: nonzero; opacity: 1;" transform=" matrix(1 0 0 1 0 0) " stroke-linecap="round" />
	<path d="M 68.692 59.431 c 1.902 -3.67 2.984 -7.835 2.984 -12.255 c 0 -14.733 -11.943 -26.676 -26.676 -26.676 S 18.324 32.444 18.324 47.177 c 0 4.42 1.081 8.584 2.984 12.255 H 68.692 z" style="stroke: none; stroke-width: 1; stroke-dasharray: none; stroke-linecap: butt; stroke-linejoin: miter; stroke-miterlimit: 10; fill: rgb(255,190,0); fill-rule: nonzero; opacity: 1;" transform=" matrix(1 0 0 1 0 0) " stroke-linecap="round" />
	<path d="M 45 87.823 H 32.841 c -2.922 0 -5.299 -2.377 -5.299 -5.299 s 2.377 -5.299 5.299 -5.299 h 39.787 c 1.819 0 3.299 -1.479 3.299 -3.299 V 73.73 c 0 -1.819 -1.479 -3.299 -3.299 -3.299 H 13.073 c -0.552 0 -1 -0.447 -1 -1 s 0.448 -1 1 -1 h 59.555 c 2.922 0 5.299 2.377 5.299 5.299 v 0.196 c 0 2.922 -2.377 5.299 -5.299 5.299 H 32.841 c -1.819 0 -3.299 1.479 -3.299 3.299 s 1.48 3.299 3.299 3.299 H 45 c 0.552 0 1 0.447 1 1 S 45.552 87.823 45 87.823 z" style="stroke: none; stroke-width: 1; stroke-dasharray: none; stroke-linecap: butt; stroke-linejoin: miter; stroke-miterlimit: 10; fill: rgb(98,195,247); fill-rule: nonzero; opacity: 1;" transform=" matrix(1 0 0 1 0 0) " stroke-linecap="round" />
	<path d="M 86.754 60.432 H 3.246 c -0.552 0 -1 -0.447 -1 -1 s 0.448 -1 1 -1 h 83.508 c 0.553 0 1 0.447 1 1 S 87.307 60.432 86.754 60.432 z" style="stroke: none; stroke-width: 1; stroke-dasharray: none; stroke-linecap: butt; stroke-linejoin: miter; stroke-miterlimit: 10; fill: rgb(98,195,247); fill-rule: nonzero; opacity: 1;" transform=" matrix(1 0 0 1 0 0) " stroke-linecap="round" />
	<path d="M 47 45.431 c -0.553 0 -1 -0.448 -1 -1 V 30.888 C 46 27.642 43.358 25 40.112 25 c -1.31 -0.053 -2.528 0.25 -3.642 0.752 c -0.504 0.227 -1.096 0.002 -1.322 -0.501 c -0.227 -0.504 -0.002 -1.096 0.501 -1.322 c 1.376 -0.619 2.906 -0.953 4.465 -0.929 C 44.461 23 48 26.539 48 30.888 v 13.543 C 48 44.983 47.553 45.431 47 45.431 z" style="stroke: none; stroke-width: 1; stroke-dasharray: none; stroke-linecap: butt; stroke-linejoin: miter; stroke-miterlimit: 10; fill: rgb(98,195,247); fill-rule: nonzero; opacity: 1;" transform=" matrix(1 0 0 1 0 0) " stroke-linecap="round" />
	<path d="M 47 45.431 c -0.256 0 -0.512 -0.098 -0.707 -0.293 l -5.901 -5.9 c -0.391 -0.391 -0.391 -1.023 0 -1.414 s 1.023 -0.391 1.414 0 L 47 43.017 l 5.193 -5.193 c 0.391 -0.391 1.023 -0.391 1.414 0 s 0.391 1.023 0 1.414 l -5.9 5.9 C 47.512 45.333 47.256 45.431 47 45.431 z" style="stroke: none; stroke-width: 1; stroke-dasharray: none; stroke-linecap: butt; stroke-linejoin: miter; stroke-miterlimit: 10; fill: rgb(98,195,247); fill-rule: nonzero; opacity: 1;" transform=" matrix(1 0 0 1 0 0) " stroke-linecap="round" />
</g>
</svg>