<svg xmlns="http://www.w3.org/2000/svg" xmlns:xlink="http://www.w3.org/1999/xlink" version="1.1" width="256" height="256" viewBox="0 0 256 256" xml:space="preserve">

<defs>
</defs>
<g style="stroke: none; stroke-width: 0; stroke-dasharray: none; stroke-linecap: butt; stroke-linejoin: miter; stroke-miterlimit: 10; fill: none; fill-rule: nonzero; opacity: 1;" transform="translate(1.4065934065934016 1.4065934065934016) scale(2.81 2.81)" >
	<path d="M 59.426 52.115 H 3.268 c -1.788 0 -3.237 1.449 -3.237 3.237 s 1.449 3.237 3.237 3.237 h 56.158 c 4.348 0 7.886 3.538 7.886 7.885 s -3.538 7.885 -7.886 7.885 c -1.788 0 -3.237 1.449 -3.237 3.237 c 0 1.788 1.449 3.237 3.237 3.237 c 7.918 0 14.359 -6.441 14.359 -14.359 C 73.786 58.557 67.344 52.115 59.426 52.115 z" style="stroke: none; stroke-width: 1; stroke-dasharray: none; stroke-linecap: butt; stroke-linejoin: miter; stroke-miterlimit: 10; fill: rgb(67,144,179); fill-rule: nonzero; opacity: 1;" transform=" matrix(1 0 0 1 0 0) " stroke-linecap="round" />
	<path d="M 75.61 37.885 H 3.268 c -1.788 0 -3.237 -1.449 -3.237 -3.237 s 1.449 -3.237 3.237 -3.237 H 75.61 c 4.348 0 7.886 -3.537 7.886 -7.885 s -3.538 -7.885 -7.886 -7.885 c -1.788 0 -3.237 -1.449 -3.237 -3.237 s 1.449 -3.237 3.237 -3.237 c 7.918 0 14.359 6.441 14.359 14.359 C 89.97 31.443 83.528 37.885 75.61 37.885 z" style="stroke: none; stroke-width: 1; stroke-dasharray: none; stroke-linecap: butt; stroke-linejoin: miter; stroke-miterlimit: 10; fill: rgb(67,144,179); fill-rule: nonzero; opacity: 1;" transform=" matrix(1 0 0 1 0 0) " stroke-linecap="round" />
	<path d="M 61.937 45.584 H 0.992 c -0.564 0 -1.022 -0.458 -1.022 -1.022 c 0 -0.564 0.458 -1.022 1.022 -1.022 h 60.945 c 0.565 0 1.022 0.458 1.022 1.022 C 62.959 45.126 62.502 45.584 61.937 45.584 z" style="stroke: none; stroke-width: 1; stroke-dasharray: none; stroke-linecap: butt; stroke-linejoin: miter; stroke-miterlimit: 10; fill: rgb(123,216,247); fill-rule: nonzero; opacity: 1;" transform=" matrix(1 0 0 1 0 0) " stroke-linecap="round" />
	<path d="M 61.937 24.973 H 17.023 c -0.564 0 -1.022 -0.458 -1.022 -1.022 s 0.458 -1.022 1.022 -1.022 h 44.914 c 0.565 0 1.022 0.458 1.022 1.022 S 62.502 24.973 61.937 24.973 z" style="stroke: none; stroke-width: 1; stroke-dasharray: none; stroke-linecap: butt; stroke-linejoin: miter; stroke-miterlimit: 10; fill: rgb(123,216,247); fill-rule: nonzero; opacity: 1;" transform=" matrix(1 0 0 1 0 0) " stroke-linecap="round" />
	<path d="M 50.486 66.195 H 18.168 c -0.564 0 -1.022 -0.457 -1.022 -1.022 c 0 -0.565 0.458 -1.022 1.022 -1.022 h 32.319 c 0.565 0 1.022 0.457 1.022 1.022 C 51.508 65.738 51.051 66.195 50.486 66.195 z" style="stroke: none; stroke-width: 1; stroke-dasharray: none; stroke-linecap: butt; stroke-linejoin: miter; stroke-miterlimit: 10; fill: rgb(123,216,247); fill-rule: nonzero; opacity: 1;" transform=" matrix(1 0 0 1 0 0) " stroke-linecap="round" />
</g>
</svg>